<svg width="116" height="18" viewBox="0 0 116 18" fill="none" xmlns="http://www.w3.org/2000/svg">
<path d="M7.77832 10.6426C7.77832 10.1445 7.60254 9.76367 7.25098 9.5C6.89941 9.23047 6.2666 8.94922 5.35254 8.65625C4.43848 8.35742 3.71484 8.06445 3.18164 7.77734C1.72852 6.99219 1.00195 5.93457 1.00195 4.60449C1.00195 3.91309 1.19531 3.29785 1.58203 2.75879C1.97461 2.21387 2.53418 1.78906 3.26074 1.48438C3.99316 1.17969 4.81348 1.02734 5.72168 1.02734C6.63574 1.02734 7.4502 1.19434 8.16504 1.52832C8.87988 1.85645 9.43359 2.32227 9.82617 2.92578C10.2246 3.5293 10.4238 4.21484 10.4238 4.98242H7.78711C7.78711 4.39648 7.60254 3.94238 7.2334 3.62012C6.86426 3.29199 6.3457 3.12793 5.67773 3.12793C5.0332 3.12793 4.53223 3.26563 4.1748 3.54102C3.81738 3.81055 3.63867 4.16797 3.63867 4.61328C3.63867 5.0293 3.84668 5.37793 4.2627 5.65918C4.68457 5.94043 5.30273 6.2041 6.11719 6.4502C7.61719 6.90137 8.70996 7.46094 9.39551 8.12891C10.0811 8.79688 10.4238 9.62891 10.4238 10.625C10.4238 11.7324 10.0049 12.6025 9.16699 13.2354C8.3291 13.8623 7.20117 14.1758 5.7832 14.1758C4.79883 14.1758 3.90234 13.9971 3.09375 13.6396C2.28516 13.2764 1.66699 12.7812 1.23926 12.1543C0.817383 11.5273 0.606445 10.8008 0.606445 9.97461H3.25195C3.25195 11.3867 4.0957 12.0928 5.7832 12.0928C6.41016 12.0928 6.89941 11.9668 7.25098 11.7148C7.60254 11.457 7.77832 11.0996 7.77832 10.6426ZM14.4316 4.49023L14.5107 5.55371C15.1846 4.72754 16.0957 4.31445 17.2441 4.31445C18.4688 4.31445 19.3096 4.79785 19.7666 5.76465C20.4346 4.79785 21.3867 4.31445 22.623 4.31445C23.6543 4.31445 24.4219 4.61621 24.9258 5.21973C25.4297 5.81738 25.6816 6.71973 25.6816 7.92676V14H23.1328V7.93555C23.1328 7.39648 23.0273 7.00391 22.8164 6.75781C22.6055 6.50586 22.2334 6.37988 21.7002 6.37988C20.9385 6.37988 20.4111 6.74316 20.1182 7.46973L20.127 14H17.5869V7.94434C17.5869 7.39355 17.4785 6.99512 17.2617 6.74902C17.0449 6.50293 16.6758 6.37988 16.1543 6.37988C15.4336 6.37988 14.9121 6.67871 14.5898 7.27637V14H12.0498V4.49023H14.4316ZM33.1523 14C33.0352 13.7715 32.9502 13.4873 32.8975 13.1475C32.2822 13.833 31.4824 14.1758 30.498 14.1758C29.5664 14.1758 28.793 13.9062 28.1777 13.3672C27.5684 12.8281 27.2637 12.1484 27.2637 11.3281C27.2637 10.3203 27.6357 9.54688 28.3799 9.00781C29.1299 8.46875 30.2109 8.19629 31.623 8.19043H32.792V7.64551C32.792 7.20605 32.6777 6.85449 32.4492 6.59082C32.2266 6.32715 31.8721 6.19531 31.3857 6.19531C30.958 6.19531 30.6211 6.29785 30.375 6.50293C30.1348 6.70801 30.0146 6.98926 30.0146 7.34668H27.4746C27.4746 6.7959 27.6445 6.28613 27.9844 5.81738C28.3242 5.34863 28.8047 4.98242 29.4258 4.71875C30.0469 4.44922 30.7441 4.31445 31.5176 4.31445C32.6895 4.31445 33.6182 4.61035 34.3037 5.20215C34.9951 5.78809 35.3408 6.61426 35.3408 7.68066V11.8027C35.3467 12.7051 35.4727 13.3877 35.7188 13.8506V14H33.1523ZM31.0518 12.2334C31.4268 12.2334 31.7725 12.1514 32.0889 11.9873C32.4053 11.8174 32.6396 11.5918 32.792 11.3105V9.67578H31.8428C30.5713 9.67578 29.8945 10.1152 29.8125 10.9941L29.8037 11.1436C29.8037 11.46 29.915 11.7207 30.1377 11.9258C30.3604 12.1309 30.665 12.2334 31.0518 12.2334ZM42.6357 6.87207C42.29 6.8252 41.9854 6.80176 41.7217 6.80176C40.7607 6.80176 40.1309 7.12695 39.832 7.77734V14H37.292V4.49023H39.6914L39.7617 5.62402C40.2715 4.75098 40.9775 4.31445 41.8799 4.31445C42.1611 4.31445 42.4248 4.35254 42.6709 4.42871L42.6357 6.87207ZM47.3467 2.15234V4.49023H48.9727V6.35352H47.3467V11.0996C47.3467 11.4512 47.4141 11.7031 47.5488 11.8555C47.6836 12.0078 47.9414 12.084 48.3223 12.084C48.6035 12.084 48.8525 12.0635 49.0693 12.0225V13.9473C48.5713 14.0996 48.0586 14.1758 47.5312 14.1758C45.75 14.1758 44.8418 13.2764 44.8066 11.4775V6.35352H43.418V4.49023H44.8066V2.15234H47.3467ZM54.3428 12.1279C54.8115 12.1279 55.1924 11.999 55.4854 11.7412C55.7783 11.4834 55.9307 11.1406 55.9424 10.7129H58.3242C58.3184 11.3574 58.1426 11.9492 57.7969 12.4883C57.4512 13.0215 56.9766 13.4375 56.373 13.7363C55.7754 14.0293 55.1133 14.1758 54.3867 14.1758C53.0273 14.1758 51.9551 13.7451 51.1699 12.8838C50.3848 12.0166 49.9922 10.8213 49.9922 9.29785V9.13086C49.9922 7.66602 50.3818 6.49707 51.1611 5.62402C51.9404 4.75098 53.0098 4.31445 54.3691 4.31445C55.5586 4.31445 56.5107 4.6543 57.2256 5.33398C57.9463 6.00781 58.3125 6.90723 58.3242 8.03223H55.9424C55.9307 7.54004 55.7783 7.1416 55.4854 6.83691C55.1924 6.52637 54.8057 6.37109 54.3252 6.37109C53.7334 6.37109 53.2852 6.58789 52.9805 7.02148C52.6816 7.44922 52.5322 8.14648 52.5322 9.11328V9.37695C52.5322 10.3555 52.6816 11.0586 52.9805 11.4863C53.2793 11.9141 53.7334 12.1279 54.3428 12.1279ZM62.4551 14H59.9062V4.49023H62.4551V14ZM59.7568 2.0293C59.7568 1.64844 59.8828 1.33496 60.1348 1.08887C60.3926 0.842773 60.7412 0.719727 61.1807 0.719727C61.6143 0.719727 61.96 0.842773 62.2178 1.08887C62.4756 1.33496 62.6045 1.64844 62.6045 2.0293C62.6045 2.41602 62.4727 2.73242 62.209 2.97852C61.9512 3.22461 61.6084 3.34766 61.1807 3.34766C60.7529 3.34766 60.4072 3.22461 60.1436 2.97852C59.8857 2.73242 59.7568 2.41602 59.7568 2.0293ZM67.5967 2.15234V4.49023H69.2227V6.35352H67.5967V11.0996C67.5967 11.4512 67.6641 11.7031 67.7988 11.8555C67.9336 12.0078 68.1914 12.084 68.5723 12.084C68.8535 12.084 69.1025 12.0635 69.3193 12.0225V13.9473C68.8213 14.0996 68.3086 14.1758 67.7812 14.1758C66 14.1758 65.0918 13.2764 65.0566 11.4775V6.35352H63.668V4.49023H65.0566V2.15234H67.5967ZM74.1885 10.4053L75.9463 4.49023H78.6709L74.8477 15.4766L74.6367 15.9775C74.0684 17.2197 73.1309 17.8408 71.8242 17.8408C71.4551 17.8408 71.0801 17.7852 70.6992 17.6738V15.749L71.0859 15.7578C71.5664 15.7578 71.9238 15.6846 72.1582 15.5381C72.3984 15.3916 72.5859 15.1484 72.7207 14.8086L73.0195 14.0264L69.6885 4.49023H72.4219L74.1885 10.4053ZM94.7373 14H92.1006V8.51562H86.959V14H84.3223V1.20312H86.959V6.38867H92.1006V1.20312H94.7373V14ZM102.577 13.0332C101.95 13.7949 101.083 14.1758 99.9756 14.1758C98.9561 14.1758 98.1768 13.8828 97.6377 13.2969C97.1045 12.7109 96.832 11.8525 96.8203 10.7217V4.49023H99.3604V10.6338C99.3604 11.624 99.8115 12.1191 100.714 12.1191C101.575 12.1191 102.167 11.8203 102.489 11.2227V4.49023H105.038V14H102.647L102.577 13.0332ZM115.523 9.33301C115.523 10.8564 115.198 12.0459 114.548 12.9014C113.897 13.751 112.989 14.1758 111.823 14.1758C110.792 14.1758 109.969 13.7803 109.354 12.9893L109.239 14H106.954V0.5H109.494V5.34277C110.08 4.65723 110.851 4.31445 111.806 4.31445C112.966 4.31445 113.874 4.74219 114.53 5.59766C115.192 6.44727 115.523 7.64551 115.523 9.19238V9.33301ZM112.983 9.14844C112.983 8.1875 112.831 7.4873 112.526 7.04785C112.222 6.60254 111.768 6.37988 111.164 6.37988C110.355 6.37988 109.799 6.71094 109.494 7.37305V11.126C109.805 11.7939 110.367 12.1279 111.182 12.1279C112.002 12.1279 112.541 11.7236 112.799 10.915C112.922 10.5283 112.983 9.93945 112.983 9.14844Z" fill="white"/>
</svg>
